<?xml version="1.0" standalone="no"?>
<!DOCTYPE svg PUBLIC "-//W3C//DTD SVG 20010904//EN"
 "http://www.w3.org/TR/2001/REC-SVG-20010904/DTD/svg10.dtd">
<svg version="1.0" xmlns="http://www.w3.org/2000/svg"
 width="659.000000pt" height="659.000000pt" viewBox="0 0 659.000000 659.000000"
 preserveAspectRatio="xMidYMid meet">
<metadata>
Created by potrace 1.14, written by Peter Selinger 2001-2017
</metadata>
<g transform="translate(0.000000,659.000000) scale(0.100000,-0.100000)"
fill="#000000" stroke="none">
<path d="M3098 6586 c-1 -2 -34 -6 -73 -10 -222 -19 -503 -89 -745 -186 -216
-86 -524 -274 -709 -433 -45 -39 -267 -262 -301 -302 -258 -306 -453 -688
-550 -1074 -63 -250 -59 -88 -59 -2267 l-1 -1981 68 -69 c133 -136 310 -229
477 -249 59 -7 189 -7 225 0 193 37 336 113 470 248 l70 70 1 106 c0 58 2 169
5 246 2 77 6 806 9 1620 5 1494 8 1777 21 1850 29 176 133 413 246 564 63 84
214 229 298 287 217 150 448 224 715 230 285 7 519 -62 765 -224 142 -94 316
-283 399 -432 72 -130 131 -296 154 -430 17 -103 16 -7 22 -1835 3 -820 7
-1562 9 -1650 3 -88 5 -198 5 -245 l1 -85 61 -63 c341 -351 845 -352 1187 -4
l62 64 -3 2012 -3 2011 -31 135 c-120 518 -339 925 -697 1297 -402 419 -931
687 -1531 778 -94 15 -554 31 -567 21z"/>
<path d="M3228 4765 c-2 -2 -27 -6 -57 -9 -193 -23 -412 -153 -536 -319 -113
-149 -167 -313 -165 -502 1 -135 21 -229 75 -342 48 -102 87 -157 169 -238 84
-84 143 -126 233 -167 414 -187 908 -7 1098 401 111 237 103 506 -21 742 -132
251 -410 423 -701 433 -51 2 -94 2 -95 1z"/>
</g>
</svg>
